<?xml version="1.0" encoding="UTF-8"?>
<svg id="PRINT" xmlns="http://www.w3.org/2000/svg" viewBox="0 0 359 451.72">
  <defs>
    <style>
      .cls-1 {
        fill: #fff;
      }

      .cls-2 {
        fill: #4d4d4d;
      }
    </style>
  </defs>
  <path class="cls-2" d="m284.93,445.85c0-3.14-2.47-5.68-5.58-5.84v-10.74c0-7.34-4.91-13.52-11.62-15.47l-1.1-13.51c-.66-8.08-2.87-15.94-6.49-23.19-11.87-23.78-38.12-86.12-25.73-152.03,5.04-.74,8.92-5.04,8.92-10.29,0-4.79-3.25-8.79-7.65-10.02v-10.62c0-31.03-25.15-56.18-56.18-56.18h0c-31.03,0-56.18,25.15-56.18,56.18v10.62c-4.4,1.23-7.65,5.22-7.65,10.02,0,5.24,3.88,9.54,8.92,10.29,12.39,65.91-13.86,128.25-25.73,152.03-3.62,7.25-5.83,15.11-6.49,23.19l-1.1,13.51c-6.71,1.95-11.62,8.13-11.62,15.47v10.74c-3.1.16-5.58,2.7-5.58,5.84s2.47,5.68,5.58,5.84v.03h199.71v-.03c3.1-.16,5.58-2.7,5.58-5.84Z"/>
  <g>
    <path class="cls-1" d="m129.73,204.33c.18-5.51.12-11.1,1.08-16.55,1.29-7.31,4.18-14.32,8.44-20.4,8.59-12.26,22.49-20.36,37.5-21.29,6.51-.4,13.28.46,19.39,2.8-25.43-6.41-52.48,11.55-55.39,37.8-.64,5.82-.02,11.8.17,17.63h-11.19Z"/>
    <g>
      <path class="cls-1" d="m233.1,233.13c.06-.46.12-.91.19-1.37l-29.46.69,29.27.68Z"/>
      <path class="cls-1" d="m232.01,242.25c.04-.44.09-.88.14-1.32l-28.32.66,28.19.66Z"/>
      <path class="cls-1" d="m231.39,251.37c.02-.43.03-.85.05-1.28l-27.61.64,27.56.64Z"/>
      <path class="cls-1" d="m231.17,260.51c0-.42,0-.85.01-1.27l-27.35.64,27.34.64Z"/>
      <path class="cls-1" d="m231.36,269.65c-.02-.43-.05-.85-.06-1.27l-27.05.64,27.11.64Z"/>
      <path class="cls-1" d="m231.93,278.79c-.04-.43-.06-.86-.1-1.29l-26.7.64,26.79.65Z"/>
      <path class="cls-1" d="m232.88,287.95c-.05-.44-.12-.88-.17-1.32l-26.64.66,26.81.66Z"/>
      <path class="cls-1" d="m234.17,297.11c-.07-.45-.14-.91-.21-1.37l-26.64.68,26.85.69Z"/>
      <path class="cls-1" d="m235.84,306.29c-.1-.48-.19-.96-.29-1.44l-27.12.72,27.4.73Z"/>
      <path class="cls-1" d="m237.85,315.47c-.12-.51-.25-1.02-.37-1.53l-27.29.76,27.66.77Z"/>
      <path class="cls-1" d="m240.19,324.67c-.15-.55-.29-1.1-.44-1.65l-27.6.82,28.04.83Z"/>
      <path class="cls-1" d="m242.74,333.43c-.09-.29-.18-.6-.27-.9l-27.45.45,27.72.45Z"/>
      <path class="cls-1" d="m245.73,342.6c-.11-.32-.22-.64-.32-.96l-28.44.48,28.76.48Z"/>
      <path class="cls-1" d="m249.07,351.78c-.13-.34-.26-.69-.39-1.03l-28.63.51,29.02.52Z"/>
      <path class="cls-1" d="m252.76,360.96c-.16-.37-.31-.74-.47-1.11l-28.88.55,29.35.56Z"/>
      <path class="cls-1" d="m256.81,370.15c-.19-.41-.37-.8-.57-1.23l-29.39.61,29.96.62Z"/>
      <path class="cls-1" d="m261.22,379.37c-.21-.46-.43-.92-.65-1.38l-30.92.68,31.57.7Z"/>
      <path class="cls-1" d="m264.55,388.58c-.14-.51-.3-1.01-.45-1.52l-32.42.75,32.88.76Z"/>
      <path class="cls-1" d="m266.37,397.75c-.07-.53-.14-1.07-.22-1.6l-32.95.8,33.17.8Z"/>
      <polygon class="cls-1" points="267.17 406.91 267.04 405.27 234.22 406.09 267.17 406.91"/>
    </g>
    <g>
      <path class="cls-1" d="m125.9,233.13c-.06-.46-.12-.91-.19-1.37l29.46.69-29.27.68Z"/>
      <path class="cls-1" d="m126.98,242.25c-.04-.44-.09-.88-.14-1.32l28.32.66-28.19.66Z"/>
      <path class="cls-1" d="m127.61,251.37c-.02-.43-.03-.85-.05-1.28l27.61.64-27.56.64Z"/>
      <path class="cls-1" d="m127.83,260.51c0-.42,0-.85-.01-1.27l27.35.64-27.34.64Z"/>
      <path class="cls-1" d="m127.64,269.65c.02-.43.05-.85.06-1.27l27.05.64-27.11.64Z"/>
      <path class="cls-1" d="m127.07,278.79c.04-.43.06-.86.1-1.29l26.7.64-26.79.65Z"/>
      <path class="cls-1" d="m126.12,287.95c.05-.44.12-.88.17-1.32l26.64.66-26.81.66Z"/>
      <path class="cls-1" d="m124.83,297.11c.07-.45.14-.91.21-1.37l26.64.68-26.85.69Z"/>
      <path class="cls-1" d="m123.15,306.29c.1-.48.19-.96.29-1.44l27.12.72-27.4.73Z"/>
      <path class="cls-1" d="m121.15,315.47c.12-.51.25-1.02.37-1.53l27.29.76-27.66.77Z"/>
      <path class="cls-1" d="m118.81,324.67c.15-.55.29-1.1.44-1.65l27.6.82-28.04.83Z"/>
      <path class="cls-1" d="m116.26,333.43c.09-.29.18-.6.27-.9l27.45.45-27.72.45Z"/>
      <path class="cls-1" d="m113.27,342.6c.11-.32.22-.64.32-.96l28.44.48-28.76.48Z"/>
      <path class="cls-1" d="m109.93,351.78c.13-.34.26-.69.39-1.03l28.63.51-29.02.52Z"/>
      <path class="cls-1" d="m106.24,360.96c.16-.37.31-.74.47-1.11l28.88.55-29.35.56Z"/>
      <path class="cls-1" d="m102.18,370.15c.19-.41.37-.8.57-1.23l29.39.61-29.96.62Z"/>
      <path class="cls-1" d="m97.78,379.37c.21-.46.43-.92.65-1.38l30.92.68-31.57.7Z"/>
      <path class="cls-1" d="m94.45,388.58c.14-.51.3-1.01.45-1.52l32.42.75-32.88.76Z"/>
      <path class="cls-1" d="m92.63,397.75c.07-.53.14-1.07.22-1.6l32.95.8-33.17.8Z"/>
      <polygon class="cls-1" points="91.83 406.91 91.96 405.27 124.78 406.09 91.83 406.91"/>
    </g>
    <g>
      <path class="cls-1" d="m202.08,223.37c-.23,23.86.1,47.85,3.31,71.54,1.86,13.75,4.51,27.25,8.04,40.67,3.53,13.41,9.65,25.87,13.49,39.15,3.65,12.64,5.21,25.59,4.73,38.72-.08-10.43-1.58-20.91-4.18-31-3.44-13.39-9.74-25.74-13.86-38.9-8.31-26.57-11.82-54.17-12.46-81.95-.29-12.76.17-25.49.93-38.23Z"/>
      <path class="cls-1" d="m156.91,223.37c1.48,24.83,1.48,49.71-1.67,74.42-1.75,13.72-4.24,27.48-8.29,40.72-2.05,6.71-4.28,13.35-6.92,19.85-2.57,6.33-5.19,12.62-7.15,19.17-3.48,11.6-5.46,23.8-5.55,35.92-.42-11.48.68-22.84,3.46-34,3.32-13.34,9.32-25.78,13.31-38.91,8.01-26.34,11.3-53.99,12.43-81.43.49-11.91.48-23.83.37-35.75Z"/>
      <path class="cls-1" d="m93.28,416.31c46.77-.94,93.55-1.02,140.33-.55,10.7.11,21.4.34,32.1.55-46.77.95-93.55,1.02-140.33.55-10.7-.11-21.4-.34-32.1-.55Z"/>
      <path class="cls-1" d="m82.74,439.97c23.08-.23,46.15-.36,69.23-.45,30.91-.12,61.81.03,92.72.14,10.53.04,21.05.2,31.58.31-23.08.23-46.15.36-69.23.45-30.91.12-61.81-.03-92.72-.15-10.53-.04-21.05-.2-31.58-.31Z"/>
      <path class="cls-1" d="m127.65,204.33c29.05-.56,58.1-.72,87.15-.32,5.52.08,11.04.21,16.55.32-29.05.56-58.1.72-87.15.32-5.52-.08-11.04-.21-16.55-.32Z"/>
      <path class="cls-1" d="m121.58,220.55c32.46-.56,64.92-.7,97.38-.32,6.15.07,12.3.21,18.46.32-32.46.56-64.92.7-97.38.32-6.15-.07-12.3-.21-18.46-.32Z"/>
    </g>
    <path class="cls-1" d="m234.09,226.97l-42.02-42.02c.73-1.67,1.14-3.51,1.14-5.45s-.41-3.78-1.14-5.45l23.22-23.22c-2.63-2.17-5.46-4.1-8.46-5.78l-21.88,21.88c-1.67-.73-3.51-1.14-5.45-1.14s-3.78.41-5.45,1.14l-21.88-21.88c-3,1.67-5.83,3.6-8.46,5.78l23.22,23.22c-.73,1.67-1.14,3.51-1.14,5.45s.41,3.78,1.14,5.45l-42.02,42.02c1.83,10.34,2.72,20.58,2.88,30.6l7.72-7.72c1.16-1.16,1.8-2.71,1.8-4.35s-.64-3.19-1.8-4.35l-5.27-5.27,43.81-43.81c1.67.73,3.51,1.14,5.45,1.14s3.78-.41,5.45-1.14l43.81,43.81-8.87,8.87c-1.16,1.16-1.8,2.71-1.8,4.35s.64,3.19,1.8,4.35l11.34,11.34c-.24-12.29.59-24.98,2.86-37.82Z"/>
  </g>
  <g>
    <path class="cls-1" d="m190.51,301.11h-.51v-18.19c0-5.8-4.7-10.5-10.5-10.5s-10.5,4.7-10.5,10.5v18.19h-.51c-1.42,0-2.57,1.15-2.57,2.57s1.15,2.57,2.57,2.57h22.02c1.42,0,2.57-1.15,2.57-2.57s-1.15-2.57-2.57-2.57Z"/>
    <path class="cls-2" d="m188.06,288.26s-1.07-.19-2.68-.33c-1.46-.14-3.37-.2-5.31-.24-.04-3.02-.1-6-.25-8.26-.14-2.41-.33-4.01-.33-4.01,0,0-.19,1.61-.33,4.01-.15,2.27-.21,5.24-.25,8.26-1.94.04-3.85.1-5.31.24-1.61.14-2.68.33-2.68.33,0,0,1.07.19,2.68.33,1.46.15,3.37.2,5.31.24.04,3.02.1,6,.25,8.26.14,2.41.33,4.01.33,4.01,0,0,.19-1.61.33-4.01.15-2.27.21-5.24.25-8.26,1.94-.04,3.85-.1,5.31-.24,1.61-.14,2.68-.33,2.68-.33Z"/>
  </g>
  <g>
    <path class="cls-1" d="m192.42,371.33h-.59v-21.35c0-6.81-5.52-12.33-12.33-12.33s-12.33,5.52-12.33,12.33v21.35h-.59c-1.67,0-3.02,1.35-3.02,3.02s1.35,3.02,3.02,3.02h25.85c1.67,0,3.02-1.35,3.02-3.02s-1.35-3.02-3.02-3.02Z"/>
    <path class="cls-2" d="m189.55,356.25s-1.26-.22-3.14-.38c-1.72-.17-3.95-.24-6.24-.29-.05-3.54-.11-7.04-.29-9.7-.17-2.83-.38-4.71-.38-4.71,0,0-.22,1.88-.38,4.71-.18,2.66-.24,6.16-.29,9.7-2.28.05-4.52.11-6.24.28-1.88.16-3.14.39-3.14.39,0,0,1.26.22,3.14.39,1.72.17,3.95.24,6.24.28.05,3.54.11,7.04.29,9.7.16,2.83.39,4.71.39,4.71,0,0,.22-1.88.39-4.71.18-2.66.24-6.16.29-9.7,2.28-.05,4.52-.12,6.24-.29,1.89-.16,3.14-.38,3.14-.38Z"/>
  </g>
  <path class="cls-2" d="m235.88,127.08l10.45,10.45c.76.76,1.77,1.14,2.77,1.14s2-.38,2.77-1.14l105.98-105.99c.74-.74,1.15-1.72,1.15-2.77s-.41-2.03-1.15-2.77l-21.26-21.26c-1.48-1.48-4.06-1.48-5.54,0l-105.99,105.99c-1.52,1.53-1.52,4.01,0,5.54l6.85,6.85-52.42,52.42-52.42-52.42,10.46-10.46c1.52-1.53,1.52-4.01,0-5.54L31.55,1.14c-1.53-1.53-4.01-1.52-5.54,0L4.75,22.4c-1.53,1.53-1.53,4.01,0,5.54l105.99,105.99c.74.74,1.72,1.15,2.77,1.15s2.03-.41,2.77-1.15l6.85-6.85,52.42,52.42-52.42,52.42-10.45-10.45c-1.53-1.53-4.01-1.53-5.54,0L1.14,327.45c-1.52,1.53-1.52,4.01,0,5.54l21.26,21.26c.74.74,1.72,1.15,2.77,1.15s2.03-.41,2.77-1.15l105.99-105.99c1.53-1.53,1.53-4.01,0-5.54l-6.85-6.85,52.42-52.42,52.42,52.42-10.45,10.45c-1.53,1.53-1.53,4.01,0,5.54l105.99,105.99c.74.74,1.72,1.15,2.77,1.15s2.03-.41,2.77-1.15l21.26-21.26c.74-.74,1.15-1.72,1.15-2.77s-.41-2.03-1.15-2.77l-105.99-105.99c-1.48-1.48-4.06-1.48-5.54,0l-6.85,6.85-52.42-52.42,52.42-52.42Zm13.62,8.08c-.22.22-.57.22-.79,0l-10.45-10.45,3.12-3.12,10.85,10.85-2.73,2.73Zm2.92-40.58l4.44-4.44,4.02,4.02-4.44,4.44-4.02-4.02Zm1.97,6.08l-4.44,4.44-4.02-4.02,4.44-4.44,4.02,4.02Zm3.27-11.31l5.08-5.08,4.02,4.02-5.08,5.08-4.02-4.02Zm5.87-5.87l5.08-5.08,4.02,4.02-5.08,5.08-4.02-4.02Zm5.87-5.87l4.44-4.44,4.02,4.02-4.44,4.44-4.02-4.02Zm6.5-6.5l4.44-4.44,4.02,4.02-4.44,4.44-4.02-4.02Zm5.23-5.23l5.08-5.08,4.02,4.02-5.08,5.08-4.02-4.02Zm5.87-5.87l5.08-5.08,4.02,4.02-5.08,5.08-4.02-4.02Zm5.87-5.87l4.44-4.44,4.02,4.02-4.44,4.44-4.02-4.02Zm6.5-6.5l4.44-4.44,4.02,4.02-4.44,4.44-4.02-4.02Zm5.23-5.23l5.08-5.08,4.02,4.02-5.08,5.08-4.02-4.02Zm5.87-5.87l5.08-5.08,4.02,4.02-5.08,5.08-4.02-4.02Zm5.87-5.87l4.44-4.44,4.02,4.02-4.44,4.44-4.02-4.02Zm6.5-6.5l4.44-4.44,4.02,4.02-4.44,4.44-4.02-4.02Zm-77.7,77.7l4.02,4.02-5.08,5.08-4.02-4.02,5.08-5.08Zm7.98,7.98l10.85,10.85-5.08,5.08-10.85-10.85,5.08-5.08Zm.79-.79l4.44-4.44,10.85,10.85-4.44,4.44-10.85-10.85Zm6.5-6.5l4.44-4.44,10.85,10.85-4.44,4.44-10.85-10.85Zm5.23-5.23l5.08-5.08,10.85,10.85-5.08,5.08-10.85-10.85Zm5.87-5.87l5.08-5.08,10.85,10.85-5.08,5.08-10.85-10.85Zm5.87-5.87l4.44-4.44,10.85,10.85-4.44,4.44-10.85-10.85Zm6.5-6.5l4.44-4.44,10.85,10.85-4.44,4.44-10.85-10.85Zm5.23-5.23l5.08-5.08,10.85,10.85-5.08,5.08-10.85-10.85Zm5.87-5.87l5.08-5.08,10.85,10.85-5.08,5.08-10.85-10.85Zm5.87-5.87l4.44-4.44,10.85,10.85-4.44,4.44-10.85-10.85Zm6.5-6.5l4.44-4.44,10.85,10.85-4.44,4.44-10.85-10.85Zm5.23-5.23l5.08-5.08,10.85,10.85-5.08,5.08-10.85-10.85Zm5.87-5.87l5.08-5.08,10.85,10.85-5.08,5.08-10.85-10.85Zm5.87-5.87l4.44-4.44,10.85,10.85-4.44,4.44-10.85-10.85Zm6.5-6.5l4.44-4.44,10.85,10.85-4.44,4.44-10.85-10.85Zm5.23-5.23l5.08-5.08,10.85,10.85-5.08,5.08-10.85-10.85Zm-3.95-3.95l-4.02-4.02,5.08-5.08,4.02,4.02-5.08,5.08Zm1.84-9.89l3.12-3.12,4.02,4.02-3.12,3.12-4.02-4.02Zm-94.67,94.67l4.02,4.02-5.08,5.08-4.02-4.02,5.08-5.08Zm7.98,7.98l10.85,10.85-5.08,5.08-10.85-10.85,5.08-5.08Zm108.41-86.94c0,.09-.02.25-.16.39l-2.73,2.73-10.85-10.85,3.12-3.12,10.45,10.45c.14.14.16.31.16.4Zm-125.37,87.95l3.12-3.12,4.02,4.02-3.12,3.12-4.02-4.02Zm-95.11-6.43l-10.46,10.46-3.12-3.12,10.85-10.85,2.73,2.73c.22.22.22.57,0,.79Zm-40.58-3.71l-4.44-4.44,4.02-4.02,4.44,4.44-4.02,4.02Zm6.08-1.97l4.44,4.44-4.02,4.02-4.44-4.44,4.02-4.02Zm-11.31-3.27l-5.08-5.08,4.02-4.02,5.08,5.08-4.02,4.02Zm-5.87-5.87l-5.08-5.08,4.02-4.02,5.08,5.08-4.02,4.02Zm-5.87-5.87l-4.44-4.44,4.02-4.02,4.44,4.44-4.02,4.02Zm-6.5-6.5l-4.44-4.44,4.02-4.02,4.44,4.44-4.02,4.02Zm-5.23-5.23l-5.08-5.08,4.02-4.02,5.08,5.08-4.02,4.02Zm-5.87-5.87l-5.08-5.08,4.02-4.02,5.08,5.08-4.02,4.02Zm-5.87-5.87l-4.44-4.44,4.02-4.02,4.44,4.44-4.02,4.02Zm-6.5-6.5l-4.44-4.44,4.02-4.02,4.44,4.44-4.02,4.02Zm-5.23-5.23l-5.08-5.08,4.02-4.02,5.08,5.08-4.02,4.02Zm-5.87-5.87l-5.08-5.08,4.02-4.02,5.08,5.08-4.02,4.02Zm-5.87-5.87l-4.44-4.44,4.02-4.02,4.44,4.44-4.02,4.02Zm-6.5-6.5l-4.44-4.44,4.02-4.02,4.44,4.44-4.02,4.02Zm77.7,77.7l4.02-4.02,5.08,5.08-4.02,4.02-5.08-5.08Zm7.98-7.98l10.85-10.85,5.08,5.08-10.85,10.85-5.08-5.08Zm-.79-.79l-4.44-4.44,10.85-10.85,4.44,4.44-10.85,10.85Zm-6.5-6.5l-4.44-4.44,10.85-10.85,4.44,4.44-10.85,10.85Zm-5.23-5.23l-5.08-5.08,10.85-10.85,5.08,5.08-10.85,10.85Zm-5.87-5.87l-5.08-5.08,10.85-10.85,5.08,5.08-10.85,10.85Zm-5.87-5.87l-4.44-4.44,10.85-10.85,4.44,4.44-10.85,10.85Zm-6.5-6.5l-4.44-4.44,10.85-10.85,4.44,4.44-10.85,10.85Zm-5.23-5.23l-5.08-5.08,10.85-10.85,5.08,5.08-10.85,10.85Zm-5.87-5.87l-5.08-5.08,10.85-10.85,5.08,5.08-10.85,10.85Zm-5.87-5.87l-4.44-4.44,10.85-10.85,4.44,4.44-10.85,10.85Zm-6.5-6.5l-4.44-4.44,10.85-10.85,4.44,4.44-10.85,10.85Zm-5.23-5.23l-5.08-5.08,10.85-10.85,5.08,5.08-10.85,10.85Zm-5.87-5.87l-5.08-5.08,10.85-10.85,5.08,5.08-10.85,10.85Zm-5.87-5.87l-4.44-4.44,10.85-10.85,4.44,4.44-10.85,10.85Zm-6.5-6.5l-4.44-4.44,10.85-10.85,4.44,4.44-10.85,10.85Zm-5.23-5.23l-5.08-5.08,10.85-10.85,5.08,5.08-10.85,10.85Zm-3.95,3.95l-4.02,4.02-5.08-5.08,4.02-4.02,5.08,5.08Zm-9.89-1.84l-3.12-3.12,4.02-4.02,3.12,3.12-4.02,4.02Zm94.67,94.67l4.02-4.02,5.08,5.08-4.02,4.02-5.08-5.08Zm7.98-7.98l10.85-10.85,5.08,5.08-10.85,10.85-5.08-5.08ZM28.38,3.52c.11-.11.25-.16.4-.16s.29.05.4.16l2.73,2.73-10.85,10.85-3.12-3.12L28.38,3.52Zm88.35,125.21l-3.12-3.12,4.02-4.02,3.12,3.12-4.02,4.02Zm-7.22,95.11c.22-.22.57-.22.79,0l10.45,10.46-3.12,3.12-10.85-10.85,2.73-2.73Zm-2.92,40.58l-4.44,4.44-4.02-4.02,4.44-4.44,4.02,4.02Zm-1.97-6.08l4.44-4.44,4.02,4.02-4.44,4.44-4.02-4.02Zm-3.27,11.31l-5.08,5.08-4.02-4.02,5.08-5.08,4.02,4.02Zm-5.87,5.87l-5.08,5.08-4.02-4.02,5.08-5.08,4.02,4.02Zm-5.87,5.87l-4.44,4.44-4.02-4.02,4.44-4.44,4.02,4.02Zm-6.5,6.5l-4.44,4.44-4.02-4.02,4.44-4.44,4.02,4.02Zm-5.23,5.23l-5.08,5.08-4.02-4.02,5.08-5.08,4.02,4.02Zm-5.87,5.87l-5.08,5.08-4.02-4.02,5.08-5.08,4.02,4.02Zm-5.87,5.87l-4.44,4.44-4.02-4.02,4.44-4.44,4.02,4.02Zm-6.5,6.5l-4.44,4.44-4.02-4.02,4.44-4.44,4.02,4.02Zm-5.23,5.23l-5.08,5.08-4.02-4.02,5.08-5.08,4.02,4.02Zm-5.87,5.87l-5.08,5.08-4.02-4.02,5.08-5.08,4.02,4.02Zm-5.87,5.87l-4.44,4.44-4.02-4.02,4.44-4.44,4.02,4.02Zm-6.5,6.5l-4.44,4.44-4.02-4.02,4.44-4.44,4.02,4.02Zm77.7-77.7l-4.02-4.02,5.08-5.08,4.02,4.02-5.08,5.08Zm-7.98-7.98l-10.85-10.85,5.08-5.08,10.85,10.85-5.08,5.08Zm-.79.79l-4.44,4.44-10.85-10.85,4.44-4.44,10.85,10.85Zm-6.5,6.5l-4.44,4.44-10.85-10.85,4.44-4.44,10.85,10.85Zm-5.23,5.23l-5.08,5.08-10.85-10.85,5.08-5.08,10.85,10.85Zm-5.87,5.87l-5.08,5.08-10.85-10.85,5.08-5.08,10.85,10.85Zm-5.87,5.87l-4.44,4.44-10.85-10.85,4.44-4.44,10.85,10.85Zm-6.5,6.5l-4.44,4.44-10.85-10.85,4.44-4.44,10.85,10.85Zm-5.23,5.23l-5.08,5.08-10.85-10.85,5.08-5.08,10.85,10.85Zm-5.87,5.87l-5.08,5.08-10.85-10.85,5.08-5.08,10.85,10.85Zm-5.87,5.87l-4.44,4.44-10.85-10.85,4.44-4.44,10.85,10.85Zm-6.5,6.5l-4.44,4.44-10.85-10.85,4.44-4.44,10.85,10.85Zm-5.23,5.23l-5.08,5.08-10.85-10.85,5.08-5.08,10.85,10.85Zm-5.87,5.87l-5.08,5.08-10.85-10.85,5.08-5.08,10.85,10.85Zm-5.87,5.87l-4.44,4.44-10.85-10.85,4.44-4.44,10.85,10.85Zm-6.5,6.5l-4.44,4.44-10.85-10.85,4.44-4.44,10.85,10.85Zm-5.23,5.23l-5.08,5.08-10.85-10.85,5.08-5.08,10.85,10.85Zm3.95,3.95l4.02,4.02-5.08,5.08-4.02-4.02,5.08-5.08Zm-1.84,9.89l-3.12,3.12-4.02-4.02,3.12-3.12,4.02,4.02Zm94.67-94.67l-4.02-4.02,5.08-5.08,4.02,4.02-5.08,5.08Zm-7.98-7.98l-10.85-10.85,5.08-5.08,10.85,10.85-5.08,5.08ZM3.52,329.83l2.73-2.73,10.85,10.85-3.12,3.12-10.45-10.45c-.22-.22-.22-.57,0-.79Zm125.21-87.55l-3.12,3.12-4.02-4.02,3.12-3.12,4.02,4.02Zm95.11,6.43l10.45-10.45,3.12,3.12-10.85,10.85-2.73-2.73c-.22-.22-.22-.57,0-.79Zm40.58,3.71l4.44,4.44-4.02,4.02-4.44-4.44,4.02-4.02Zm-6.08,1.97l-4.44-4.44,4.02-4.02,4.44,4.44-4.02,4.02Zm11.31,3.27l5.08,5.08-4.02,4.02-5.08-5.08,4.02-4.02Zm5.87,5.87l5.08,5.08-4.02,4.02-5.08-5.08,4.02-4.02Zm5.87,5.87l4.44,4.44-4.02,4.02-4.44-4.44,4.02-4.02Zm6.5,6.5l4.44,4.44-4.02,4.02-4.44-4.44,4.02-4.02Zm5.23,5.23l5.08,5.08-4.02,4.02-5.08-5.08,4.02-4.02Zm5.87,5.87l5.08,5.08-4.02,4.02-5.08-5.08,4.02-4.02Zm5.87,5.87l4.44,4.44-4.02,4.02-4.44-4.44,4.02-4.02Zm6.5,6.5l4.44,4.44-4.02,4.02-4.44-4.44,4.02-4.02Zm5.23,5.23l5.08,5.08-4.02,4.02-5.08-5.08,4.02-4.02Zm5.87,5.87l5.08,5.08-4.02,4.02-5.08-5.08,4.02-4.02Zm5.87,5.87l4.44,4.44-4.02,4.02-4.44-4.44,4.02-4.02Zm6.5,6.5l4.44,4.44-4.02,4.02-4.44-4.44,4.02-4.02Zm-77.7-77.7l-4.02,4.02-5.08-5.08,4.02-4.02,5.08,5.08Zm-7.98,7.98l-10.85,10.85-5.08-5.08,10.85-10.85,5.08,5.08Zm.79.79l4.44,4.44-10.85,10.85-4.44-4.44,10.85-10.85Zm6.5,6.5l4.44,4.44-10.85,10.85-4.44-4.44,10.85-10.85Zm5.23,5.23l5.08,5.08-10.85,10.85-5.08-5.08,10.85-10.85Zm5.87,5.87l5.08,5.08-10.85,10.85-5.08-5.08,10.85-10.85Zm5.87,5.87l4.44,4.44-10.85,10.85-4.44-4.44,10.85-10.85Zm6.5,6.5l4.44,4.44-10.85,10.85-4.44-4.44,10.85-10.85Zm5.23,5.23l5.08,5.08-10.85,10.85-5.08-5.08,10.85-10.85Zm5.87,5.87l5.08,5.08-10.85,10.85-5.08-5.08,10.85-10.85Zm5.87,5.87l4.44,4.44-10.85,10.85-4.44-4.44,10.85-10.85Zm6.5,6.5l4.44,4.44-10.85,10.85-4.44-4.44,10.85-10.85Zm5.23,5.23l5.08,5.08-10.85,10.85-5.08-5.08,10.85-10.85Zm5.87,5.87l5.08,5.08-10.85,10.85-5.08-5.08,10.85-10.85Zm5.87,5.87l4.44,4.44-10.85,10.85-4.44-4.44,10.85-10.85Zm6.5,6.5l4.44,4.44-10.85,10.85-4.44-4.44,10.85-10.85Zm5.23,5.23l5.08,5.08-10.85,10.85-5.08-5.08,10.85-10.85Zm3.95-3.95l4.02-4.02,5.08,5.08-4.02,4.02-5.08-5.08Zm9.89,1.84l3.12,3.12-4.02,4.02-3.12-3.12,4.02-4.02Zm-94.67-94.67l-4.02,4.02-5.08-5.08,4.02-4.02,5.08,5.08Zm-7.98,7.98l-10.85,10.85-5.08-5.08,10.85-10.85,5.08,5.08Zm87.33,108.24c-.28.28-.5.28-.79,0l-2.73-2.73,10.85-10.85,3.12,3.12-10.46,10.46Zm-88.34-125.21l3.12,3.12-4.02,4.02-3.12-3.12,4.02-4.02Z"/>
  <path class="cls-2" d="m179.5,168.03c-6.33,0-11.47,5.13-11.47,11.47s5.13,11.47,11.47,11.47,11.47-5.13,11.47-11.47-5.13-11.47-11.47-11.47Z"/>
  <path class="cls-1" d="m179.5,175.4c-2.27,0-4.1,1.84-4.1,4.1s1.84,4.1,4.1,4.1,4.1-1.84,4.1-4.1-1.84-4.1-4.1-4.1Z"/>
</svg>