<?xml version="1.0" encoding="UTF-8"?>
<svg id="objects" xmlns="http://www.w3.org/2000/svg" viewBox="0 0 1832.21 403.04">
  <defs>
    <style>
      .cls-1 {
        fill: #fff;
      }

      .cls-2 {
        fill: #121214;
      }
    </style>
  </defs>
  <g>
    <path class="cls-2" d="m1832.21,204.36c0,109.73-88.95,198.68-198.68,198.68h0c-109.73,0-198.68-88.95-198.68-198.68h0c0-109.73,88.95-198.68,198.68-198.68h0c109.73,0,198.68,88.95,198.68,198.68h0Z"/>
    <path class="cls-1" d="m1672.91,255.55v-98.44s11.1,18.5,51.22,19.63c2.14.06,3.91-1.7,3.91-3.84v-27.82c0-2.07-1.65-3.71-3.72-3.83-31.12-1.76-45.9-25.63-47.35-47.52-.13-2.03-1.91-3.57-3.94-3.57h-31.73c-2.11,0-3.83,1.71-3.83,3.83v156.49c0,17-12.99,31.79-29.97,32.59-19.41.92-35.19-15.74-32.79-35.43,1.7-13.91,12.86-25.3,26.74-27.23,2.76-.38,5.45-.41,8.06-.12,2.31.26,4.34-1.46,4.34-3.78v-27.89c0-1.98-1.51-3.7-3.49-3.82-3.98-.26-8.06-.17-12.2.3-30.61,3.47-55.31,28.24-58.7,58.86-4.47,40.39,27.03,74.58,66.52,74.58,36.97,0,66.94-29.97,66.94-66.94"/>
  </g>
  <g>
    <path class="cls-2" d="m397.35,198.68c0,109.73-88.95,198.68-198.68,198.68h0C88.95,397.35,0,308.4,0,198.68h0C0,88.95,88.95,0,198.68,0h0c109.73,0,198.68,88.95,198.68,198.68h0Z"/>
    <path class="cls-1" d="m257.54,183.26l-3.31,26.58c-.56,4.44-4.32,7.78-8.78,7.78h-43.05v111.13c-4.54.41-9.14.62-13.79.62-10.4,0-20.55-1.04-30.36-3.02v-108.73h-33.11c-3.04,0-5.52-2.49-5.52-5.54v-33.26c0-3.05,2.48-5.54,5.52-5.54h33.11v-49.88c0-30.61,24.71-55.42,55.2-55.42h38.63c3.04,0,5.52,2.49,5.52,5.54v33.26c0,3.05-2.48,5.54-5.52,5.54h-27.6c-12.19,0-22.07,9.92-22.07,22.17v38.8h46.36c5.32,0,9.43,4.68,8.78,9.98Z"/>
  </g>
  <g>
    <path class="cls-2" d="m1357.34,198.68c0,109.73-88.95,198.68-198.68,198.68h0c-109.73,0-198.68-88.95-198.68-198.68h0c0-109.73,88.95-198.68,198.68-198.68h0c109.73,0,198.68,88.95,198.68,198.68h0Z"/>
    <path class="cls-1" d="m1212.57,94.46h-107.81c-27.78,0-50.31,22.53-50.31,50.31v107.81c0,27.78,22.53,50.31,50.31,50.31h107.81c27.78,0,50.31-22.53,50.31-50.31v-107.81c0-27.78-22.53-50.31-50.31-50.31Zm32.34,154.52c0,19.84-16.1,35.94-35.94,35.94h-100.62c-19.84,0-35.94-16.1-35.94-35.94v-100.62c0-19.84,16.1-35.94,35.94-35.94h100.62c19.84,0,35.94,16.1,35.94,35.94v100.62Z"/>
    <path class="cls-1" d="m1158.76,144.77c-29.75,0-53.9,24.15-53.9,53.9s24.15,53.9,53.9,53.9,53.9-24.15,53.9-53.9-24.15-53.9-53.9-53.9Zm0,89.84c-19.8,0-35.94-16.14-35.94-35.94s16.14-35.94,35.94-35.94,35.94,16.14,35.94,35.94-16.14,35.94-35.94,35.94Z"/>
    <circle class="cls-1" cx="1216.26" cy="141.18" r="10.78"/>
  </g>
  <g>
    <path class="cls-2" d="m877.35,198.68c0,109.73-88.95,198.68-198.68,198.68h0c-109.73,0-198.68-88.95-198.68-198.68h0C479.99,88.95,568.94,0,678.67,0h0c109.73,0,198.68,88.95,198.68,198.68h0Z"/>
    <path class="cls-1" d="m707.34,180.43l80.37-85.96h-30.52l-63.08,67.48-48.31-67.48h-83.48l84.5,118.04-84.5,90.39h30.52l67.22-71.9,51.47,71.9h83.48l-87.67-122.46Zm-102.01-63.86h29.1l117.56,164.21h-29.1l-117.56-164.21Z"/>
  </g>
</svg>