<?xml version="1.0" encoding="UTF-8"?>
<svg xmlns="http://www.w3.org/2000/svg" viewBox="0 0 624 837.46">
  <defs>
    <style>
      .cls-1 {
        letter-spacing: -.04em;
      }

      .cls-2 {
        fill: #fff;
      }

      .cls-3 {
        letter-spacing: 0em;
      }

      .cls-4 {
        letter-spacing: 0em;
      }

      .cls-5 {
        letter-spacing: -.03em;
      }

      .cls-6 {
        font-size: 50.38px;
      }

      .cls-6, .cls-7, .cls-8, .cls-9 {
        font-family: BreeSerif-Regular, 'BreeSerif Regular';
      }

      .cls-7 {
        font-size: 219.33px;
      }

      .cls-8 {
        font-size: 26.55px;
      }

      .cls-10 {
        font-family: Questa-Regular, 'Questa Regular';
        font-size: 36.51px;
      }

      .cls-9 {
        font-size: 45.32px;
      }
    </style>
  </defs>
  <g id="Background">
    <g>
      <g>
        <path class="cls-2" d="m189.02,832.13v-.26c-.35.4-.69.72-1.03.97-.34.25-.71.44-1.1.57-.4.13-.83.2-1.3.2-.62,0-1.2-.13-1.72-.39-.53-.26-.99-.64-1.37-1.13-.39-.49-.68-1.06-.88-1.72-.2-.66-.3-1.37-.3-2.14,0-1.62.4-2.88,1.19-3.79.79-.9,1.83-1.36,3.12-1.36.75,0,1.38.13,1.89.38.51.26,1.01.65,1.5,1.18v-3.83c0-.53.11-.93.32-1.21.21-.27.51-.41.91-.41s.69.12.91.38c.21.25.32.62.32,1.11v11.44c0,.49-.11.86-.34,1.11-.23.25-.52.37-.88.37s-.65-.13-.88-.38c-.23-.26-.35-.62-.35-1.1Zm-5.1-3.81c0,.7.11,1.3.33,1.79.22.49.52.87.9,1.12.38.25.79.38,1.24.38s.87-.12,1.25-.36c.38-.24.68-.6.9-1.09.23-.49.34-1.11.34-1.84,0-.69-.11-1.29-.34-1.78-.22-.5-.53-.88-.91-1.14-.38-.26-.8-.39-1.26-.39s-.9.13-1.27.4c-.37.27-.66.65-.87,1.16-.21.5-.31,1.09-.31,1.75Z"/>
        <path class="cls-2" d="m200.46,828.98h-5.07c0,.59.12,1.11.36,1.56.23.45.54.79.92,1.02.38.23.81.34,1.27.34.31,0,.59-.04.85-.11.26-.07.5-.19.75-.34.24-.15.46-.32.66-.5.2-.18.46-.42.79-.72.13-.11.32-.17.57-.17.27,0,.48.07.64.22.16.15.25.35.25.62,0,.23-.09.51-.28.82-.19.31-.46.62-.83.9-.37.29-.84.53-1.4.72-.56.19-1.2.29-1.93.29-1.66,0-2.96-.47-3.88-1.42-.92-.95-1.39-2.24-1.39-3.87,0-.77.11-1.48.34-2.13.23-.66.56-1.22,1-1.69.44-.47.98-.83,1.62-1.08.64-.25,1.35-.38,2.13-.38,1.01,0,1.88.21,2.61.64.73.43,1.27.98,1.63,1.66.36.68.54,1.37.54,2.07,0,.65-.19,1.08-.56,1.27-.37.19-.9.29-1.58.29Zm-5.07-1.47h4.7c-.06-.89-.3-1.55-.72-1.99-.41-.44-.96-.66-1.64-.66s-1.18.22-1.59.67c-.41.45-.67,1.11-.76,1.98Z"/>
        <path class="cls-2" d="m212.27,830.22c0,.71-.17,1.33-.52,1.84-.35.51-.86.9-1.54,1.16-.68.26-1.51.39-2.48.39s-1.73-.14-2.39-.43c-.66-.28-1.16-.64-1.47-1.07-.32-.43-.48-.86-.48-1.29,0-.29.1-.53.3-.73.2-.2.46-.3.77-.3.27,0,.48.07.63.2s.29.32.42.56c.27.46.59.81.96,1.04.37.23.87.34,1.52.34.52,0,.94-.12,1.28-.35.33-.23.5-.5.5-.79,0-.46-.17-.79-.52-1-.35-.21-.91-.41-1.71-.6-.89-.22-1.62-.46-2.18-.7-.56-.24-1.01-.56-1.34-.96-.34-.4-.5-.89-.5-1.47,0-.52.15-1.01.47-1.47.31-.46.77-.83,1.37-1.11.6-.28,1.33-.41,2.19-.41.67,0,1.27.07,1.81.21.54.14.98.33,1.34.56.36.23.63.49.82.78.19.29.28.56.28.84,0,.3-.1.54-.3.73-.2.19-.48.29-.85.29-.27,0-.49-.08-.68-.23-.19-.15-.4-.38-.64-.68-.2-.25-.43-.46-.69-.61-.27-.15-.63-.23-1.08-.23s-.86.1-1.17.3c-.31.2-.47.45-.47.74,0,.27.11.5.34.67.23.18.54.32.92.43.39.11.92.25,1.6.42.8.2,1.46.43,1.97.7.51.27.9.59,1.16.96.26.37.39.79.39,1.27Z"/>
        <path class="cls-2" d="m214.92,821.86c-.36,0-.67-.11-.93-.33-.26-.22-.38-.54-.38-.94,0-.37.13-.67.39-.91.26-.24.57-.36.92-.36s.63.11.89.32c.26.21.39.53.39.94s-.13.71-.38.94c-.25.22-.55.34-.9.34Zm1.28,2.68v7.49c0,.52-.12.91-.37,1.18-.25.27-.56.4-.94.4s-.69-.13-.93-.41c-.24-.27-.36-.66-.36-1.17v-7.42c0-.51.12-.9.36-1.16.24-.26.55-.39.93-.39s.69.13.94.39c.25.26.37.62.37,1.08Z"/>
        <path class="cls-2" d="m227.56,824.97v7.53c0,.86-.09,1.6-.28,2.22-.18.62-.48,1.13-.88,1.54-.41.4-.94.71-1.59.9-.66.2-1.47.29-2.45.29-.89,0-1.69-.12-2.39-.38-.7-.25-1.24-.57-1.62-.97-.38-.4-.57-.8-.57-1.22,0-.32.11-.58.32-.77.21-.2.48-.3.78-.3.38,0,.71.17,1,.5.14.17.28.34.43.52.15.18.31.32.49.45.18.12.4.21.65.28.25.06.55.09.87.09.67,0,1.19-.09,1.56-.28.37-.19.63-.45.78-.78.15-.33.24-.69.26-1.08.03-.38.04-1,.06-1.85-.4.56-.86.98-1.38,1.27-.52.29-1.14.44-1.87.44-.87,0-1.63-.22-2.28-.67-.65-.44-1.15-1.06-1.5-1.86-.35-.8-.52-1.72-.52-2.76,0-.78.11-1.48.32-2.11.21-.63.52-1.16.91-1.59.39-.43.85-.75,1.36-.97.51-.22,1.08-.33,1.69-.33.73,0,1.37.14,1.91.42.54.28,1.04.72,1.5,1.33v-.35c0-.45.11-.8.33-1.04.22-.25.51-.37.86-.37.5,0,.83.16,1,.49.17.33.25.8.25,1.41Zm-7.51,3.29c0,1.05.23,1.85.69,2.38.46.54,1.05.81,1.78.81.43,0,.84-.12,1.22-.35.38-.23.7-.58.94-1.05.24-.46.36-1.03.36-1.7,0-1.06-.23-1.88-.7-2.47s-1.08-.88-1.84-.88-1.33.28-1.78.85c-.45.56-.67,1.36-.67,2.4Z"/>
        <path class="cls-2" d="m231.68,824.5v.31c.46-.6.95-1.04,1.5-1.32.54-.28,1.16-.42,1.87-.42s1.29.15,1.83.45c.54.3.94.72,1.21,1.26.17.32.28.66.33,1.03.05.37.08.84.08,1.41v4.82c0,.52-.12.91-.36,1.18-.24.27-.55.4-.93.4s-.7-.13-.94-.41c-.24-.27-.36-.66-.36-1.17v-4.32c0-.85-.12-1.51-.36-1.96-.24-.45-.71-.68-1.42-.68-.46,0-.88.14-1.26.41s-.66.65-.84,1.13c-.13.39-.19,1.11-.19,2.17v3.25c0,.53-.12.92-.37,1.18-.24.26-.56.39-.94.39s-.68-.13-.92-.41c-.24-.27-.36-.66-.36-1.17v-7.49c0-.49.11-.86.32-1.11.22-.24.51-.37.88-.37.23,0,.43.05.62.16.18.11.33.27.44.48.11.21.17.48.17.79Z"/>
        <path class="cls-2" d="m247.46,828.98h-5.07c0,.59.12,1.11.36,1.56.23.45.54.79.92,1.02.38.23.81.34,1.27.34.31,0,.59-.04.85-.11.26-.07.5-.19.75-.34.24-.15.46-.32.67-.5.2-.18.46-.42.79-.72.13-.11.32-.17.57-.17.27,0,.48.07.65.22.16.15.25.35.25.62,0,.23-.09.51-.28.82-.18.31-.46.62-.83.9-.37.29-.83.53-1.4.72-.56.19-1.21.29-1.93.29-1.66,0-2.96-.47-3.89-1.42-.92-.95-1.39-2.24-1.39-3.87,0-.77.11-1.48.34-2.13.23-.66.56-1.22,1-1.69.44-.47.98-.83,1.61-1.08.64-.25,1.35-.38,2.13-.38,1.01,0,1.88.21,2.61.64.73.43,1.27.98,1.63,1.66.36.68.54,1.37.54,2.07,0,.65-.19,1.08-.56,1.27-.37.19-.9.29-1.58.29Zm-5.07-1.47h4.7c-.06-.89-.3-1.55-.72-1.99-.41-.44-.96-.66-1.64-.66s-1.18.22-1.59.67c-.41.45-.67,1.11-.75,1.98Z"/>
        <path class="cls-2" d="m258.03,832.13v-.26c-.35.4-.69.72-1.03.97-.34.25-.71.44-1.1.57-.39.13-.83.2-1.3.2-.62,0-1.2-.13-1.72-.39-.53-.26-.99-.64-1.37-1.13-.39-.49-.68-1.06-.88-1.72-.2-.66-.3-1.37-.3-2.14,0-1.62.4-2.88,1.19-3.79.79-.9,1.83-1.36,3.12-1.36.75,0,1.38.13,1.89.38s1.01.65,1.5,1.18v-3.83c0-.53.11-.93.32-1.21.21-.27.51-.41.91-.41s.69.12.91.38c.21.25.32.62.32,1.11v11.44c0,.49-.11.86-.34,1.11-.23.25-.52.37-.88.37s-.65-.13-.88-.38c-.23-.26-.35-.62-.35-1.1Zm-5.1-3.81c0,.7.11,1.3.33,1.79.22.49.52.87.9,1.12.38.25.79.38,1.24.38s.87-.12,1.25-.36c.38-.24.68-.6.9-1.09.23-.49.34-1.11.34-1.84,0-.69-.11-1.29-.34-1.78-.22-.5-.53-.88-.91-1.14-.38-.26-.8-.39-1.26-.39s-.9.13-1.27.4c-.37.27-.66.65-.87,1.16-.21.5-.31,1.09-.31,1.75Z"/>
        <path class="cls-2" d="m268.63,820.7v3.96c.49-.51.98-.89,1.49-1.16.51-.27,1.13-.4,1.88-.4.86,0,1.62.21,2.27.61.65.41,1.15,1,1.51,1.78.36.78.54,1.7.54,2.76,0,.79-.1,1.5-.3,2.16-.2.66-.49,1.22-.87,1.71-.38.48-.84.85-1.38,1.12-.54.26-1.14.39-1.79.39-.4,0-.77-.05-1.13-.14-.35-.09-.65-.22-.9-.38-.25-.15-.46-.31-.63-.48-.17-.16-.4-.41-.69-.74v.26c0,.49-.12.86-.35,1.11-.23.25-.53.37-.89.37s-.66-.12-.88-.37c-.22-.25-.33-.62-.33-1.11v-11.32c0-.53.11-.92.32-1.19.21-.27.51-.4.89-.4.4,0,.71.13.92.38.21.26.32.62.32,1.1Zm.12,7.7c0,1.03.24,1.82.71,2.38.47.55,1.09.83,1.86.83.65,0,1.21-.28,1.69-.85.47-.57.71-1.38.71-2.44,0-.68-.1-1.27-.29-1.77-.2-.49-.47-.88-.84-1.14-.36-.27-.78-.4-1.26-.4s-.93.13-1.32.4c-.39.27-.69.66-.91,1.17-.22.51-.33,1.12-.33,1.82Z"/>
        <path class="cls-2" d="m279.67,833.94l.24-.58-3.19-8.04c-.2-.46-.29-.8-.29-1.01,0-.22.06-.43.17-.62.11-.19.27-.34.47-.46.2-.12.41-.17.62-.17.37,0,.65.12.85.36.19.24.36.58.5,1.02l2.19,6.38,2.08-5.94c.16-.48.31-.86.45-1.13.13-.27.27-.46.42-.55.15-.1.36-.14.63-.14.2,0,.38.05.57.16.18.1.32.24.42.42.1.18.15.36.15.56-.03.12-.07.29-.12.51-.06.22-.13.45-.21.67l-3.38,8.85c-.29.78-.58,1.39-.86,1.83-.28.44-.65.79-1.11,1.02-.46.24-1.08.36-1.86.36s-1.33-.08-1.71-.25c-.38-.17-.57-.47-.57-.9,0-.3.09-.53.27-.69.18-.16.45-.24.8-.24.14,0,.28.02.41.06.16.04.31.06.43.06.3,0,.53-.04.7-.13.17-.09.32-.24.46-.46.14-.22.29-.54.47-.96Z"/>
      </g>
      <g>
        <path class="cls-2" d="m317.23,823.29h.62v-.78c0-.81.1-1.46.31-1.94.2-.48.55-.83,1.05-1.04.49-.22,1.16-.33,2.02-.33,1.52,0,2.27.37,2.27,1.11,0,.24-.08.45-.24.62-.15.17-.34.26-.56.26-.1,0-.28-.02-.53-.06-.24-.03-.45-.06-.62-.06-.47,0-.77.14-.9.42-.13.28-.2.67-.2,1.18v.62h.63c.99,0,1.48.3,1.48.9,0,.42-.13.69-.39.8-.26.11-.62.17-1.09.17h-.63v6.87c0,.51-.12.9-.37,1.17-.24.27-.55.41-.94.41-.37,0-.67-.13-.92-.41-.24-.27-.36-.66-.36-1.17v-6.87h-.71c-.39,0-.68-.08-.89-.26-.21-.17-.31-.4-.31-.68,0-.62.43-.93,1.3-.93"/>
        <path class="cls-2" d="m325.72,829.87v2.17c0,.52-.13.92-.37,1.18-.25.27-.56.39-.94.39s-.69-.13-.93-.4c-.24-.26-.36-.66-.36-1.17v-7.22c0-1.17.42-1.75,1.26-1.75.43,0,.74.13.93.41.19.27.29.67.32,1.21.31-.53.62-.93.95-1.21.33-.27.76-.41,1.31-.41s1.07.13,1.59.41c.52.27.77.64.77,1.08,0,.31-.11.58-.33.78-.22.21-.46.31-.71.31-.1,0-.33-.06-.69-.18-.37-.11-.69-.17-.96-.17-.38,0-.69.1-.93.3-.24.2-.43.5-.56.89-.13.39-.22.87-.27,1.4-.05.54-.07,1.2-.07,1.98"/>
        <path class="cls-2" d="m337.64,828.97h-5.07c0,.59.12,1.11.36,1.56.23.45.54.79.92,1.02.38.23.8.34,1.27.34.31,0,.59-.03.85-.11.25-.07.5-.19.74-.34.24-.15.46-.32.66-.5.2-.17.47-.42.79-.72.13-.11.32-.17.57-.17.27,0,.48.07.65.22.17.15.24.35.24.62,0,.23-.09.51-.27.82-.19.32-.46.62-.84.91-.37.29-.84.53-1.4.71-.56.19-1.21.29-1.93.29-1.67,0-2.96-.47-3.89-1.42-.92-.95-1.39-2.24-1.39-3.87,0-.77.12-1.48.35-2.13.22-.66.56-1.22,1-1.69.44-.47.97-.83,1.61-1.08.64-.25,1.35-.38,2.13-.38,1.01,0,1.88.21,2.61.65.72.42,1.27.98,1.63,1.65.36.68.54,1.37.54,2.07,0,.65-.19,1.07-.56,1.27-.37.19-.9.29-1.58.29m-5.07-1.47h4.7c-.06-.88-.3-1.55-.71-1.99-.42-.44-.96-.66-1.64-.66-.65,0-1.18.22-1.59.67-.41.45-.67,1.1-.76,1.98"/>
        <path class="cls-2" d="m348.43,828.97h-5.07c0,.59.12,1.11.35,1.56.23.45.54.79.92,1.02.38.23.8.34,1.27.34.31,0,.59-.03.84-.11.26-.07.51-.19.75-.34.24-.15.46-.32.66-.5.2-.17.46-.42.79-.72.13-.11.33-.17.57-.17.27,0,.48.07.65.22.16.15.24.35.24.62,0,.23-.09.51-.27.82-.18.32-.46.62-.83.91-.37.29-.84.53-1.4.71-.56.19-1.21.29-1.93.29-1.67,0-2.96-.47-3.89-1.42-.92-.95-1.39-2.24-1.39-3.87,0-.77.12-1.48.35-2.13.23-.66.56-1.22,1-1.69.44-.47.97-.83,1.61-1.08.64-.25,1.35-.38,2.13-.38,1.01,0,1.88.21,2.61.65.72.42,1.27.98,1.62,1.65.36.68.54,1.37.54,2.07,0,.65-.19,1.07-.56,1.27-.37.19-.9.29-1.58.29m-5.07-1.47h4.7c-.06-.88-.3-1.55-.71-1.99-.42-.44-.96-.66-1.64-.66s-1.18.22-1.59.67c-.41.45-.67,1.1-.75,1.98"/>
        <path class="cls-2" d="m354.11,824.52v.31c.49-.6.99-1.04,1.53-1.32.52-.29,1.12-.43,1.78-.43.79,0,1.54.21,2.21.62.67.41,1.2,1.02,1.59,1.81.39.79.59,1.73.59,2.81,0,.79-.11,1.53-.34,2.2-.22.67-.54,1.23-.93,1.68-.39.45-.86.8-1.39,1.04-.54.24-1.11.36-1.73.36-.74,0-1.36-.15-1.87-.45-.5-.29-.98-.73-1.44-1.3v3.89c0,1.13-.42,1.71-1.24,1.71-.49,0-.81-.15-.97-.44-.15-.3-.23-.72-.23-1.29v-11.19c0-.49.11-.86.32-1.11.21-.24.51-.36.88-.36s.67.12.9.37c.23.25.35.61.35,1.09m5.08,3.77c0-.69-.11-1.27-.31-1.76-.21-.49-.5-.87-.87-1.13-.37-.26-.78-.4-1.23-.4-.71,0-1.32.28-1.81.84-.49.57-.74,1.39-.74,2.49,0,1.03.24,1.83.74,2.41.49.57,1.09.86,1.81.86.43,0,.83-.13,1.2-.37.37-.25.66-.63.88-1.13.22-.5.33-1.11.33-1.81"/>
        <path class="cls-2" d="m364.41,821.86c-.36,0-.67-.12-.92-.34-.26-.22-.39-.53-.39-.94,0-.37.13-.67.4-.91.26-.23.57-.36.91-.36s.63.11.89.32c.26.22.39.54.39.95s-.13.71-.38.94c-.25.22-.55.34-.91.34m1.28,2.68v7.5c0,.52-.12.91-.37,1.17-.25.27-.56.4-.94.4s-.69-.13-.93-.41c-.23-.28-.36-.66-.36-1.17v-7.43c0-.51.12-.89.36-1.15.24-.26.55-.39.93-.39s.69.13.94.39c.25.26.37.62.37,1.08"/>
        <path class="cls-2" d="m374.05,832.43l-2.28-3.77-1.41,1.33v2.07c0,.5-.13.88-.4,1.15-.26.27-.57.41-.91.41-.4,0-.71-.13-.94-.4-.23-.26-.34-.66-.34-1.17v-11.06c0-.57.12-1.01.33-1.31.22-.3.54-.45.95-.45s.71.14.95.41c.23.27.35.67.35,1.2v6.29l2.92-3.06c.36-.38.63-.64.83-.78.19-.14.42-.21.69-.21.33,0,.59.1.82.31.21.21.32.46.32.77,0,.38-.35.89-1.05,1.52l-1.38,1.26,2.66,4.18c.19.31.34.54.42.71.08.16.13.32.13.46,0,.41-.12.73-.34.97-.22.24-.52.35-.88.35-.32,0-.56-.08-.73-.26-.17-.17-.41-.48-.7-.93"/>
        <path class="cls-2" d="m379.69,833.61c-.39,0-.73-.12-1.01-.38-.29-.25-.43-.61-.43-1.06,0-.38.14-.72.41-.99.28-.28.61-.42,1.01-.42s.74.14,1.02.41c.28.28.42.61.42,1,0,.45-.14.81-.42,1.06-.29.26-.62.38-1,.38"/>
        <path class="cls-2" d="m392.59,830.4c0,.32-.1.67-.29,1.03-.19.37-.49.72-.89,1.05-.39.33-.89.6-1.49.8-.6.2-1.28.31-2.03.31-1.61,0-2.86-.47-3.76-1.4-.89-.94-1.35-2.19-1.35-3.76,0-1.07.21-2.01.62-2.82.41-.81,1-1.45,1.78-1.89.78-.45,1.72-.67,2.79-.67.67,0,1.29.1,1.85.29.56.2,1.03.45,1.43.76.39.31.69.64.89.99.21.35.31.68.31.99s-.11.57-.34.79c-.23.21-.52.32-.84.32-.22,0-.4-.06-.54-.17-.14-.11-.3-.29-.48-.54-.32-.48-.65-.84-1-1.08-.34-.24-.78-.36-1.31-.36-.76,0-1.38.3-1.85.9-.47.6-.7,1.42-.7,2.45,0,.49.06.94.18,1.35.12.41.29.76.52,1.04.23.29.5.51.83.65.32.15.68.23,1.06.23.52,0,.97-.12,1.34-.36.38-.24.7-.61.99-1.1.16-.29.33-.52.51-.68.18-.16.41-.25.68-.25.32,0,.58.12.79.36.21.24.32.5.32.77"/>
        <path class="cls-2" d="m403.78,828.34c0,.77-.12,1.48-.36,2.14-.25.65-.59,1.21-1.05,1.68-.46.47-1,.83-1.63,1.08-.64.25-1.35.38-2.14.38s-1.49-.13-2.12-.38c-.62-.25-1.17-.61-1.62-1.08-.46-.48-.81-1.03-1.05-1.68-.23-.64-.35-1.36-.35-2.13s.12-1.51.36-2.16c.24-.65.59-1.21,1.04-1.67.45-.46.99-.82,1.63-1.07.64-.25,1.35-.37,2.12-.37s1.5.12,2.14.38c.64.25,1.18.62,1.64,1.08.46.47.8,1.03,1.04,1.67.23.65.35,1.36.35,2.14m-2.6,0c0-1.06-.23-1.88-.7-2.47-.46-.6-1.09-.89-1.87-.89-.51,0-.96.13-1.34.39-.39.26-.68.65-.89,1.16-.21.51-.31,1.11-.31,1.8s.1,1.27.31,1.77c.21.51.5.9.89,1.17.38.27.83.4,1.35.4.79,0,1.41-.3,1.87-.89.46-.59.7-1.41.7-2.45"/>
        <path class="cls-2" d="m413.67,828.53v3.45c0,.55-.12.95-.37,1.23-.25.27-.57.41-.98.41s-.71-.13-.95-.41c-.25-.28-.37-.68-.37-1.23v-4.13c0-.65-.02-1.16-.06-1.53-.04-.35-.17-.65-.36-.88-.2-.23-.51-.35-.93-.35-.85,0-1.41.29-1.68.88-.27.58-.41,1.41-.41,2.51v3.5c0,.54-.12.95-.36,1.22-.25.27-.57.41-.96.41s-.72-.14-.97-.41c-.25-.28-.38-.69-.38-1.22v-7.42c0-.49.11-.86.34-1.11.23-.26.53-.38.89-.38s.65.12.89.36c.24.24.35.57.35.98v.24c.45-.54.94-.93,1.45-1.18.52-.26,1.08-.39,1.71-.39s1.21.13,1.68.39c.47.26.85.65,1.16,1.18.44-.53.91-.92,1.41-1.18.5-.26,1.05-.39,1.66-.39.71,0,1.32.14,1.83.42.51.28.89.68,1.15,1.2.22.47.33,1.21.33,2.22v5.06c0,.55-.12.95-.37,1.23-.25.27-.57.41-.98.41s-.71-.14-.96-.41c-.25-.28-.38-.69-.38-1.22v-4.36c0-.56-.02-1-.07-1.34-.05-.34-.18-.62-.38-.85-.21-.23-.53-.34-.95-.34-.34,0-.67.11-.97.31-.31.2-.55.48-.72.81-.19.44-.28,1.21-.28,2.32"/>
      </g>
      <g>
        <path class="cls-2" d="m292.97,827.71s0,0,0-.02c0,0,0,.01,0,.02Z"/>
        <path class="cls-2" d="m293.1,828.54h0c-.05-.24-.09-.47-.12-.7.03.23.07.47.12.7Z"/>
        <path class="cls-2" d="m293.96,830.95s-.01-.02-.02-.03c0,.01.01.02.02.03Z"/>
        <path class="cls-2" d="m293.87,830.79s-.04-.09-.07-.13c.02.05.04.09.07.13Z"/>
        <path class="cls-2" d="m293.34,829.47c.13.4.28.79.46,1.16-.18-.38-.33-.77-.45-1.16h0Z"/>
        <path class="cls-2" d="m303,817.78c.5,0,.87.04,1.29.11l.12-.76s-1.17-.36-2.71-.23l-.12-.41c.48-.1.84-.53.84-1.04,0-.58-.47-1.05-1.06-1.05s-1.06.47-1.06,1.05c0,.51.36.93.84,1.04l.13.46c-1.63.22-2.93.86-2.93.86l.23.71c.99-.33,1.85-.53,2.62-.61.76-.08,1.33-.12,1.8-.12Z"/>
        <path class="cls-2" d="m293.94,821.63h0c.04-.06.08-.1.11-.15l-.31-.22-.49-.36s-.79.74-1.4,2.05c-.03-.04-.06-.08-.09-.12-.18-.2-.44-.3-.76-.29h-.01c-.2,0-.34-.07-.43-.15.09-.11.14-.26.14-.41,0-.37-.3-.67-.67-.67s-.67.3-.67.67.3.67.67.67c.06,0,.11,0,.17-.02.16.18.43.34.81.33.2,0,.34.05.44.16.11.12.15.3.16.43,0,0,0,0,0,0-.44,1.19-.31,2.67-.31,2.67l1.06.04c.02-.54.1-1.48.37-2.23.53-1.45,1.19-2.36,1.21-2.39Z"/>
        <path class="cls-2" d="m312.2,818.66c-.37,0-.67.3-.67.67,0,.06,0,.11.02.16-.18.17-.34.43-.34.81,0,.2-.05.34-.15.44-.08.07-.19.12-.29.14-.79-1.1-1.76-1.78-1.76-1.78l-.76.81c.57.52,1.16,1.18,1.73,1.99.39.56.8,1.29,1.14,2.02l1.02-.49s-.47-1.16-1.12-2.19c.11-.04.23-.1.33-.19.2-.18.3-.44.29-.76,0-.21.07-.35.15-.44.12.09.26.14.41.14.37,0,.67-.3.67-.67s-.3-.67-.67-.67Z"/>
        <path class="cls-2" d="m309.55,827.86c-1.41.69-3.73,1.59-6.78,2.02-1.2.17-2.36.23-3.43.23-1.39,0-2.62-.1-3.56-.22-1.08-.13-1.92-.3-2.43-.42.12.39.27.78.45,1.16,0,0,0,.02.01.03.02.04.04.09.07.13.02.04.04.09.07.13,0,.01.01.02.02.03.3.57.67,1.09,1.08,1.55,1.44,1.57,2.91,1.82,2.92,1.83h.02s.02,0,.02,0c.01,0,1.31.43,3.29.43s3.85-.39,5.67-1.17c1.35-.69,2.62-1.74,3.25-2.67.49-.72.84-1.49,1.05-2.29.11-.43.2-1.11.15-1.83-.4.27-1.02.65-1.87,1.06Z"/>
        <path class="cls-2" d="m294.39,821.97c-.04.06-.65.93-1.14,2.25-.36.99-.35,2.44-.35,2.46h0c0,.34.02.68.06,1.01,0,0,0,.01,0,.02,0,.04.01.08.02.13.03.23.07.47.12.7.7.18,4.88,1.15,9.55.5,2.93-.41,5.15-1.27,6.5-1.93,1.12-.54,1.84-1.04,2.12-1.24-.28-1.03-1.04-2.64-1.74-3.65-2.01-2.87-4.17-3.6-5.28-3.78-.42-.07-.76-.11-1.24-.11-.45,0-1,.04-1.74.12-.74.08-1.57.27-2.53.6-1.35.45-2.57,1.16-3.53,2.05l-.03.03c-.14.13-.44.41-.78.84Zm12.27-.67c.96,0,1.74.78,1.74,1.74s-.78,1.74-1.74,1.74-1.74-.78-1.74-1.74.78-1.74,1.74-1.74Zm-8.24-.07c1.56,0,2.82,1.26,2.82,2.82s-1.26,2.81-2.82,2.81-2.82-1.26-2.82-2.81,1.26-2.82,2.82-2.82Z"/>
      </g>
    </g>
  </g>
  <g id="Objects">
    <g>
      <text class="cls-7" transform="translate(14.13 590.68)"><tspan class="cls-5" x="0" y="0">T</tspan><tspan class="cls-4" x="103.08" y="0">ONIC</tspan></text>
      <text class="cls-10" transform="translate(150.15 732.08) rotate(33.39)"><tspan x="0" y="0">B</tspan></text>
      <text class="cls-10" transform="translate(167.71 743.56) rotate(29.02)"><tspan x="0" y="0">E</tspan></text>
      <text class="cls-10" transform="translate(184.45 752.8) rotate(24.85)"><tspan x="0" y="0">S</tspan></text>
      <text class="cls-10" transform="translate(201.86 760.82) rotate(20.64)"><tspan x="0" y="0">T</tspan></text>
      <text class="cls-10" transform="translate(219.64 767.35) rotate(17.63)"><tspan x="0" y="0"> </tspan></text>
      <text class="cls-10" transform="translate(227.82 770.1) rotate(14.42)"><tspan x="0" y="0">B</tspan></text>
      <text class="cls-10" transform="translate(248.18 775.25) rotate(10.03)"><tspan x="0" y="0">E</tspan></text>
      <text class="cls-10" transform="translate(267.02 778.54) rotate(5.87)"><tspan x="0" y="0">E</tspan></text>
      <text class="cls-10" transform="translate(286.06 780.48) rotate(1.56)"><tspan x="0" y="0">R</tspan></text>
      <text class="cls-10" transform="translate(306.51 780.86) rotate(-1.53)"><tspan x="0" y="0"> </tspan></text>
      <text class="cls-10" transform="translate(313.31 780.84) rotate(-4.28)"><tspan x="0" y="0">Y</tspan></text>
      <text class="cls-10" transform="translate(333.05 779.48) rotate(-9.16)"><tspan x="0" y="0">O</tspan></text>
      <text class="cls-10" transform="translate(359.43 775.11) rotate(-14.84)"><tspan x="0" y="0">U</tspan></text>
      <text class="cls-10" transform="translate(383.15 768.53) rotate(-18.49)"><tspan x="0" y="0"> </tspan></text>
      <text class="cls-10" transform="translate(391.43 765.94) rotate(-21.86)"><tspan x="0" y="0">C</tspan></text>
      <text class="cls-10" transform="translate(412.5 757.44) rotate(-26.95)"><tspan x="0" y="0">A</tspan></text>
      <text class="cls-10" transform="translate(433.72 746.61) rotate(-32.32)"><tspan x="0" y="0">N</tspan></text>
      <text class="cls-10" transform="translate(454.72 732.98) rotate(-35.99)"><tspan x="0" y="0"> </tspan></text>
      <text class="cls-10" transform="translate(461.77 728.04) rotate(-39.15)"><tspan x="0" y="0">B</tspan></text>
      <text class="cls-10" transform="translate(478.2 714.69) rotate(-44.14)"><tspan x="0" y="0">U</tspan></text>
      <text class="cls-10" transform="translate(496.03 697.19) rotate(-49.12)"><tspan x="0" y="0">Y</tspan></text>
      <text class="cls-6" transform="translate(191.31 656.38)"><tspan x="0" y="0">BAR &amp; PUB</tspan></text>
      <text class="cls-8" transform="translate(240.46 707.66)"><tspan x="0" y="0">SINCE 1926</tspan></text>
      <text class="cls-9" transform="translate(217.25 412.4)"><tspan class="cls-1" x="0" y="0">L</tspan><tspan class="cls-3" x="19.62" y="0">ONDON</tspan></text>
      <g>
        <polygon points="302.31 324.12 307.48 338.36 322.62 338.87 310.67 348.19 314.86 362.75 302.31 354.26 289.76 362.75 293.95 348.19 282 338.87 297.14 338.36 302.31 324.12"/>
        <polygon points="266.06 335.99 269.66 345.94 280.24 346.29 271.89 352.8 274.82 362.97 266.06 357.04 257.29 362.97 260.22 352.8 251.87 346.29 262.45 345.94 266.06 335.99"/>
        <polygon points="338.57 335.99 342.18 345.94 352.75 346.29 344.41 352.8 347.33 362.97 338.57 357.04 329.8 362.97 332.73 352.8 324.39 346.29 334.96 345.94 338.57 335.99"/>
      </g>
      <rect x="195.83" y="697.18" width="33.19" height="3.32"/>
      <rect x="371.74" y="697.18" width="33.19" height="3.32"/>
      <g>
        <path d="m480.77,408.41c-23.37-75.9-94.11-131.23-177.57-131.23s-154.19,55.34-177.56,131.23H0v9.96h156v-7.68c21.56-60.51,79.38-103.67,147.2-103.67s130.13,44.96,149.56,111.35h3.45c-19.54-66.38-80.72-114.67-153.01-114.67s-127.54,43.53-149.88,104.71h-13.72c22.89-68.46,87.54-117.96,163.6-117.96s143.03,51.28,164.8,121.63v6.28h156v-9.96h-143.23Z"/>
        <rect y="620.84" width="156" height="9.96"/>
        <rect x="468" y="620.84" width="156" height="9.96"/>
      </g>
    </g>
  </g>
</svg>