<?xml version="1.0" encoding="UTF-8"?>
<svg id="OBJECTS" xmlns="http://www.w3.org/2000/svg" viewBox="0 0 258.67 395.85">
  <defs>
    <style>
      .cls-1 {
        fill: none;
        stroke: #24332e;
        stroke-miterlimit: 10;
        stroke-width: .75px;
      }

      .cls-2 {
        fill: #fff;
      }

      .cls-3 {
        letter-spacing: .17em;
      }

      .cls-4 {
        letter-spacing: .2em;
      }

      .cls-5 {
        letter-spacing: .2em;
      }

      .cls-6 {
        letter-spacing: .2em;
      }

      .cls-7 {
        letter-spacing: .2em;
      }

      .cls-7, .cls-8, .cls-9, .cls-10, .cls-11 {
        fill: #24332e;
      }

      .cls-7, .cls-10, .cls-11 {
        font-family: Simpel-Medium, 'Simpel Medium';
        font-weight: 500;
      }

      .cls-7, .cls-11 {
        font-size: 9.95px;
      }

      .cls-12 {
        letter-spacing: .13em;
      }

      .cls-13 {
        letter-spacing: .17em;
      }

      .cls-14 {
        letter-spacing: .2em;
      }

      .cls-15 {
        letter-spacing: .19em;
      }

      .cls-9 {
        font-family: Raleway-SemiBold, 'Raleway SemiBold';
        font-size: 16.79px;
        font-weight: 600;
      }

      .cls-16 {
        fill: #6baf92;
      }

      .cls-10 {
        font-size: 44.82px;
      }

      .cls-17 {
        letter-spacing: .2em;
      }

      .cls-11 {
        letter-spacing: .2em;
      }
    </style>
  </defs>
  <rect class="cls-16" x="9.89" y="15.87" width="248.78" height="379.98" rx="75.04" ry="75.04"/>
  <path class="cls-1" d="m82.86,18.25c11.03-3.43,22.75-5.28,34.91-5.28h13.98c5.85,0,11.61.43,17.23,1.26"/>
  <path class="cls-1" d="m166.34,18.15c47.96,14.76,82.82,59.42,82.82,112.22v131.2c0,72.56-58.82,131.38-131.38,131.38h0C52.94,392.95.38,340.39.38,275.55v-145.18C.38,82.99,28.44,42.17,68.85,23.62"/>
  <g>
    <path class="cls-2" d="m137,31.84c-10.51,13.71-12.27,31.34-6.27,46.29,16,1.91,32.55-4.38,43.06-18.09,10.51-13.71,12.27-31.34,6.27-46.29-16-1.91-32.55,4.38-43.06,18.09Z"/>
    <g>
      <path class="cls-1" d="m131.09,31.59c-8.9,14.81-8.68,32.52-1.03,46.7,16.11.1,31.86-8.01,40.76-22.82,8.9-14.81,8.68-32.52,1.03-46.7-16.11-.1-31.86,8.01-40.76,22.82Z"/>
      <line class="cls-1" x1="171.85" y1="8.77" x2="117.32" y2="99.22"/>
      <polyline class="cls-1" points="139.47 22 146.91 49.48 175.01 44.55"/>
      <polyline class="cls-1" points="150.96 13.41 156.48 33.81 177.34 30.15"/>
      <polyline class="cls-1" points="129.1 34.9 138.41 63.51 168.48 59.76"/>
    </g>
  </g>
  <g>
    <path class="cls-2" d="m80.63,41.05c6.9,13.54,20.22,21.63,34.37,22.54,7.58-11.98,8.87-27.51,1.97-41.05C110.07,8.99,96.75.91,82.6,0c-7.58,11.98-8.87,27.51-1.97,41.05Z"/>
    <g>
      <path class="cls-1" d="m75.86,44.92c8.37,12.69,22.52,19.24,36.67,18.55,6.2-12.75,5.74-28.33-2.63-41.01-8.37-12.69-22.52-19.23-36.67-18.55-6.2,12.75-5.74,28.33,2.63,41.01Z"/>
      <line class="cls-1" x1="73.23" y1="3.9" x2="112.53" y2="63.47"/>
      <polyline class="cls-1" points="71.43 34.63 96.06 39.16 102.83 14.98"/>
      <polyline class="cls-1" points="68.97 22.25 87.26 25.61 92.28 7.66"/>
      <polyline class="cls-1" points="77.73 47.75 103.97 51.23 112.41 25.94"/>
    </g>
  </g>
  <text class="cls-10" transform="translate(39.6 176.62) rotate(.07)"><tspan class="cls-13" x="0" y="0">V</tspan><tspan class="cls-14" x="32.49" y="0">eg</tspan><tspan class="cls-15" x="97.93" y="0">g</tspan><tspan class="cls-14" x="131.68" y="0">ie</tspan></text>
  <text class="cls-9" transform="translate(70.52 200.52)"><tspan class="cls-5" x="0" y="0">RES</tspan><tspan class="cls-12" x="35.65" y="0">T</tspan><tspan class="cls-3" x="46.09" y="0">A</tspan><tspan class="cls-17" x="59.26" y="0">U</tspan><tspan class="cls-6" x="73.48" y="0">R</tspan><tspan class="cls-4" x="85.95" y="0">ANT</tspan></text>
  <text class="cls-7" transform="translate(64.62 307.58)"><tspan x="0" y="0">SINCE</tspan></text>
  <text class="cls-11" transform="translate(153.54 307.58)"><tspan x="0" y="0">2002</tspan></text>
  <g>
    <path class="cls-2" d="m191.71,246.36c-6.57-7.24-20.05-5.71-30.11,3.41-7.67,6.96-11.12,16.32-9.42,23.59.17,4.19-4.19,8.5-6.23,10.03-2.08,1.55-65.43,55.71-66.55,56.95-2.11,2.35-.18,3.09-1.29,5.1-.59,1.07.84,2.52,1.22,2.87.32.41,1.62,1.98,2.74,1.5,2.1-.91,2.66,1.07,5.2-.79,1.35-.99,61.39-58.8,63.14-60.71,1.72-1.89,6.43-5.79,10.58-5.23,7.07,2.4,16.72-.12,24.4-7.09,10.06-9.12,12.88-22.39,6.31-29.63Zm-108.24,100.66c-.74.67-1.88.62-2.55-.12-.68-.74-.62-1.89.12-2.56s1.89-.61,2.56.12c.67.74.61,1.89-.13,2.56Z"/>
    <path class="cls-1" d="m189.85,243.77c-6.57-7.24-20.05-5.71-30.11,3.41-7.67,6.96-11.12,16.32-9.42,23.59.17,4.19-4.19,8.5-6.23,10.03-2.08,1.55-65.43,55.71-66.55,56.95-2.11,2.35-.18,3.09-1.29,5.1-.59,1.07.84,2.52,1.22,2.87.32.41,1.62,1.98,2.74,1.5,2.1-.91,2.66,1.07,5.2-.79,1.35-.99,61.39-58.8,63.14-60.71,1.72-1.89,6.43-5.8,10.58-5.23,7.07,2.4,16.72-.12,24.4-7.09,10.06-9.12,12.88-22.39,6.31-29.63Zm-108.24,100.65c-.74.67-1.88.62-2.55-.12-.68-.74-.62-1.89.12-2.56.74-.67,1.89-.61,2.56.12.67.74.61,1.89-.13,2.56Z"/>
    <path class="cls-2" d="m175.8,342.7c-1.11-2,.81-2.75-1.29-5.1-1.12-1.25-64.47-55.4-66.55-56.96-1.96-1.47-6.04-5.54-6.19-9.59,2.11-7.36-1.3-17.1-9.23-24.29-6.31-5.73-13.97-8.46-20.43-7.91l17.1,15.51c1.28,1.16,1.38,3.15.21,4.43-1.16,1.28-3.15,1.38-4.42.21l-15.94-14.46c-1.83-1.55-5.8-2.11-6.63-1.2-.82.91,0,4.45,1.84,6.48l15.94,14.46c1.28,1.17,1.38,3.15.21,4.43-1.17,1.28-3.15,1.38-4.43.21l-17.1-15.51c.08,6.48,3.54,13.83,9.85,19.56,7.48,6.79,16.86,9.36,23.87,7.26.03.03.03.07.07.1,4.21-.74,9.06,3.29,10.8,5.21,1.75,1.91,61.8,59.72,63.14,60.71,2.54,1.87,3.09-.12,5.2.79,1.12.48,2.42-1.08,2.74-1.5.38-.35,1.81-1.8,1.22-2.87Zm-2.83,1.35c-.67.74-1.82.8-2.55.12-.74-.67-.8-1.82-.13-2.56.67-.74,1.82-.8,2.56-.12.74.67.8,1.82.12,2.56Z"/>
    <path class="cls-1" d="m125.52,309.15c17.49,16.85,38.18,36.7,38.96,37.27,2.54,1.87,3.09-.12,5.2.79,1.12.48,2.42-1.08,2.74-1.5.38-.35,1.81-1.8,1.22-2.87-1.11-2,.81-2.75-1.29-5.1-1.11-1.25-64.47-55.4-66.55-56.96-1.96-1.47-6.04-5.54-6.19-9.59,2.11-7.36-1.3-17.1-9.23-24.29-6.31-5.73-13.97-8.46-20.43-7.91l17.1,15.51c1.28,1.16,1.38,3.15.21,4.43-1.16,1.28-3.15,1.38-4.42.21l-15.94-14.46c-1.83-1.55-5.8-2.11-6.63-1.2-.82.91,0,4.45,1.84,6.48l15.94,14.46c1.28,1.17,1.38,3.15.21,4.43-1.17,1.28-3.15,1.38-4.43.21l-17.1-15.51c.08,6.48,3.54,13.83,9.85,19.56,7.48,6.79,16.86,9.36,23.87,7.26.03.03.03.07.07.1,4.21-.74,9.06,3.29,10.8,5.21.58.64,7.64,7.48,16.84,16.36m52.63,42.12c-.67.74-1.82.8-2.55.12-.74-.67-.8-1.82-.13-2.56.67-.74,1.82-.8,2.56-.12.74.67.8,1.82.12,2.56Z"/>
  </g>
  <circle class="cls-8" cx="49.3" cy="195.36" r="2.03"/>
  <circle class="cls-8" cx="212.83" cy="195.36" r="2.03"/>
</svg>